<svg width="256" height="256" viewBox="0 0 256 256" fill="none" xmlns="http://www.w3.org/2000/svg">
<g clip-path="url(#clip0_5792_1806)">
<path d="M132.197 126.341L83.2627 235.548C82.778 236.68 82.07 237.703 81.1808 238.555C73.979 248.243 60.8084 252.119 49.2405 247.156C35.7073 241.35 29.4192 225.62 35.2218 212.094C36.2011 209.882 38.013 208.146 40.2645 207.261C42.516 206.376 45.0255 206.415 47.2486 207.369C49.4717 208.323 51.2291 210.115 52.1396 212.356C53.0501 214.597 53.0402 217.107 52.1121 219.341C50.3035 223.556 52.27 228.457 56.4867 230.266C60.6978 232.072 65.5936 230.117 67.4026 225.9C67.4026 225.9 106.732 139.082 115.307 119.094" fill="#A58976"/>
<path d="M132.197 126.341L83.2627 235.548C82.778 236.68 82.07 237.703 81.1808 238.555C73.979 248.243 60.8084 252.119 49.2405 247.156C35.7073 241.35 29.4192 225.62 35.2218 212.094C36.2011 209.882 38.013 208.146 40.2645 207.261C42.516 206.376 45.0255 206.415 47.2486 207.369C49.4717 208.323 51.2291 210.115 52.1396 212.356C53.0501 214.597 53.0402 217.107 52.1121 219.341C50.3035 223.556 52.27 228.457 56.4867 230.266C60.6978 232.072 65.5936 230.117 67.4026 225.9C67.4026 225.9 106.732 139.082 115.307 119.094" stroke="black" stroke-width="0.00246154"/>
<path d="M151.697 30.2742L156.804 18.371C157.909 15.8749 159.954 13.9151 162.494 12.9169C165.035 11.9186 167.867 11.9624 170.375 13.0386C172.884 14.1149 174.867 16.1368 175.895 18.6658C176.922 21.1949 176.911 24.027 175.864 26.5478L170.757 38.4511" fill="#774317"/>
<path d="M151.697 30.2742L156.804 18.371C157.909 15.8749 159.954 13.9151 162.494 12.9169C165.035 11.9186 167.867 11.9624 170.375 13.0386C172.884 14.1149 174.867 16.1368 175.895 18.6658C176.922 21.1949 176.911 24.027 175.864 26.5478L170.757 38.4511" stroke="black" stroke-width="0.00246154"/>
<path d="M151.697 30.2742L156.804 18.371C157.888 15.8438 159.932 13.8509 162.486 12.8303C165.04 11.8097 167.894 11.8452 170.422 12.9287L161.227 34.3611L151.698 30.273" fill="#A58976"/>
<path d="M151.697 30.2742L156.804 18.371C157.888 15.8438 159.932 13.8509 162.486 12.8303C165.04 11.8097 167.894 11.8452 170.422 12.9287L161.227 34.3611L151.698 30.273" stroke="black" stroke-width="0.00246154"/>
<path d="M166.762 30.066C103.334 2.85467 33.6401 23.4219 11.0866 75.9922L240.775 174.532C263.33 121.963 230.193 57.279 166.762 30.066Z" fill="#7F39AC" stroke="black" stroke-width="0.00246154"/>
<path d="M166.591 30L125.756 125.184L240.778 174.531C263.331 121.96 230.194 57.2767 166.762 30.0637C166.704 30.0409 166.651 30.0257 166.591 30Z" fill="#5D2A7C" stroke="black" stroke-width="0.00246154"/>
<path d="M166.762 30.0657C133.037 15.5975 87.4155 46.4922 64.862 99.0625L186.999 151.461C209.553 98.8911 200.494 44.5376 166.762 30.0657Z" fill="#A149DA" stroke="black" stroke-width="0.00246154"/>
<path d="M166.716 30.0464L125.877 125.239L186.999 151.462C209.553 98.8913 200.494 44.5378 166.761 30.0659L166.716 30.0464Z" fill="#7F39AC" stroke="black" stroke-width="0.00246154"/>
</g>
<defs>
<clipPath id="clip0_5792_1806">
<rect width="256" height="256" fill="white"/>
</clipPath>
</defs>
</svg>
